<svg width="36" height="36" viewBox="0 0 36 36" fill="none" xmlns="http://www.w3.org/2000/svg">
<path d="M29.25 10.9688H24.4688V10.4062C24.4688 6.83438 21.5719 3.9375 18 3.9375C14.4281 3.9375 11.5312 6.83438 11.5312 10.4062V10.9688H6.75C6.12773 10.9688 5.625 11.4715 5.625 12.0938V30.9375C5.625 31.5598 6.12773 32.0625 6.75 32.0625H29.25C29.8723 32.0625 30.375 31.5598 30.375 30.9375V12.0938C30.375 11.4715 29.8723 10.9688 29.25 10.9688ZM14.0625 10.4062C14.0625 8.23008 15.8238 6.46875 18 6.46875C20.1762 6.46875 21.9375 8.23008 21.9375 10.4062V10.9688H14.0625V10.4062ZM27.8438 29.5312H8.15625V13.5H11.5312V16.5938C11.5312 16.7484 11.6578 16.875 11.8125 16.875H13.7812C13.9359 16.875 14.0625 16.7484 14.0625 16.5938V13.5H21.9375V16.5938C21.9375 16.7484 22.0641 16.875 22.2188 16.875H24.1875C24.3422 16.875 24.4688 16.7484 24.4688 16.5938V13.5H27.8438V29.5312Z" fill="black"/>
</svg>
